<?xml version="1.0" standalone="no"?>
<!DOCTYPE svg PUBLIC "-//W3C//DTD SVG 20010904//EN"
 "http://www.w3.org/TR/2001/REC-SVG-20010904/DTD/svg10.dtd">
<svg version="1.0" xmlns="http://www.w3.org/2000/svg"
 width="1024.000000pt" height="1024.000000pt" viewBox="0 0 1024.000000 1024.000000"
 preserveAspectRatio="xMidYMid meet">

<g transform="translate(0.000000,1024.000000) scale(0.100000,-0.100000)"
fill="#ff6b6b" stroke="none">
<path d="M2835 8711 c-174 -21 -368 -95 -530 -202 -113 -75 -306 -272 -373
-381 -66 -106 -135 -276 -157 -383 -66 -326 4 -679 183 -913 73 -96 186 -202
280 -263 42 -28 78 -52 80 -53 1 -2 -14 -32 -34 -67 -113 -201 -277 -599 -367
-894 -127 -413 -163 -653 -154 -1013 5 -225 19 -336 72 -557 67 -283 241 -683
399 -919 44 -67 79 -125 78 -130 -2 -5 6 -15 18 -23 11 -8 20 -26 21 -41 0
-22 2 -23 8 -9 6 16 11 14 34 -20 18 -26 25 -47 21 -59 -4 -14 -3 -15 4 -5 7
10 17 5 43 -25 270 -305 441 -461 682 -623 554 -371 1041 -550 1653 -605 287
-26 651 -18 879 20 585 97 1137 346 1620 730 106 84 370 339 469 453 38 44 49
52 57 40 8 -11 9 -10 7 6 -1 11 17 46 41 79 38 51 45 57 52 40 5 -15 7 -12 7
11 -1 20 12 49 34 80 98 138 234 396 321 605 206 500 259 1023 157 1540 -78
394 -234 836 -441 1254 -32 65 -59 124 -59 130 0 6 37 36 83 66 148 98 281
249 365 415 186 370 135 859 -124 1208 -80 107 -134 162 -244 250 -138 111
-286 187 -441 228 -102 27 -327 37 -436 20 -174 -27 -353 -110 -508 -234 -103
-83 -220 -230 -283 -354 -25 -48 -20 -48 -152 5 -211 84 -491 151 -740 177
-171 19 -488 21 -650 5 -242 -23 -581 -107 -799 -197 -46 -19 -89 -32 -96 -29
-7 2 -29 36 -49 76 -43 85 -126 197 -193 261 -135 129 -325 239 -483 278 -96
24 -251 34 -355 22z m247 -602 c142 -30 287 -130 369 -257 l49 -75 -61 -39
c-238 -150 -474 -371 -706 -661 l-95 -117 -60 32 c-128 70 -230 209 -263 362
-71 322 150 666 479 747 82 20 212 24 288 8z m4401 -18 c145 -51 282 -159 361
-284 146 -228 129 -518 -39 -705 -48 -53 -175 -136 -199 -130 -7 2 -51 51 -97
109 -201 253 -449 486 -691 649 -37 25 -68 48 -68 52 0 3 22 39 49 80 79 118
195 201 333 238 96 26 264 22 351 -9z m-1619 -1462 c165 -30 290 -145 331
-304 44 -169 -16 -359 -135 -432 -29 -18 -56 -30 -61 -28 -4 3 -30 0 -58 -6
-27 -6 -63 -9 -78 -7 -28 3 -28 4 13 25 84 45 146 159 146 269 1 130 -81 235
-201 258 -41 7 -131 -3 -131 -15 0 -5 6 -9 14 -9 22 0 56 -49 56 -81 0 -93
-99 -142 -169 -83 -24 20 -31 34 -31 61 0 29 -2 33 -14 24 -8 -7 -20 -35 -26
-63 -32 -130 20 -284 117 -347 29 -19 51 -37 48 -39 -2 -2 -21 2 -42 9 -21 8
-46 14 -55 15 -20 1 -51 24 -44 32 3 3 -3 17 -13 31 -82 120 -115 335 -70 458
39 105 165 209 282 232 59 12 57 12 121 0z m-1252 -32 c207 -101 274 -346 162
-583 -34 -72 -109 -151 -151 -158 -44 -7 -41 4 7 32 85 48 136 157 128 276 -6
82 -31 140 -80 181 -57 48 -138 71 -164 45 -6 -6 -21 -6 -42 2 -25 10 -34 10
-44 0 -9 -9 -7 -12 9 -12 31 0 63 -46 63 -89 0 -48 -22 -78 -69 -92 -53 -16
-104 8 -124 58 l-14 36 -11 -46 c-15 -56 -15 -140 -2 -187 18 -65 73 -143 125
-179 l50 -34 -101 6 c-149 7 -207 44 -260 165 -91 204 -25 436 157 553 72 46
122 59 219 56 70 -2 95 -7 142 -30z m1008 -856 c903 -142 1378 -505 1497
-1145 23 -123 23 -432 0 -567 -65 -376 -219 -738 -436 -1019 -329 -427 -815
-696 -1358 -751 -148 -15 -410 -6 -553 21 -390 71 -782 279 -1043 554 -311
327 -527 776 -592 1231 -19 133 -19 414 0 535 53 327 248 627 529 812 274 180
640 294 1117 347 46 5 224 8 394 6 254 -3 334 -7 445 -24z"/>
<path d="M5551 5907 c2 -1 13 -9 24 -17 19 -14 19 -14 6 3 -7 9 -18 17 -24 17
-6 0 -8 -1 -6 -3z"/>
<path d="M4895 5573 c-258 -21 -533 -88 -703 -171 -166 -80 -232 -234 -188
-435 20 -87 88 -233 144 -309 154 -206 450 -397 725 -468 103 -26 136 -30 250
-30 203 0 362 44 581 162 130 70 199 121 301 223 100 100 167 203 218 338 28
73 31 94 32 192 0 97 -3 116 -25 160 -69 141 -228 222 -575 294 -82 17 -199
35 -260 41 -101 9 -405 11 -500 3z m65 -158 c0 -26 -19 -32 -55 -19 -13 5 -11
10 12 25 38 24 43 23 43 -6z m188 7 c-3 -14 -17 -17 -91 -20 -68 -2 -87 0 -87
11 0 23 8 25 96 26 76 1 85 -1 82 -17z"/>
<path d="M3890 3565 c-33 -40 37 -159 186 -314 203 -212 456 -351 751 -413
146 -31 441 -33 578 -4 323 66 549 190 775 423 169 174 233 285 181 313 -34
17 -45 12 -134 -64 -270 -231 -579 -354 -975 -388 -424 -36 -905 111 -1186
362 -117 105 -147 119 -176 85z"/>
<path d="M3290 8690 c8 -5 20 -10 25 -10 6 0 3 5 -5 10 -8 5 -19 10 -25 10 -5
0 -3 -5 5 -10z"/>
<path d="M7648 8693 c7 -3 16 -2 19 1 4 3 -2 6 -13 5 -11 0 -14 -3 -6 -6z"/>
<path d="M7730 8666 c0 -2 7 -7 16 -10 8 -3 12 -2 9 4 -6 10 -25 14 -25 6z"/>
<path d="M3640 8466 c0 -2 8 -10 18 -17 15 -13 16 -12 3 4 -13 16 -21 21 -21
13z"/>
<path d="M8491 7795 c1 -19 18 -51 18 -35 0 8 -4 22 -9 30 -5 8 -9 11 -9 5z"/>
<path d="M1703 7465 c0 -22 2 -30 4 -17 2 12 2 30 0 40 -3 9 -5 -1 -4 -23z"/>
<path d="M8521 7314 c0 -11 3 -14 6 -6 3 7 2 16 -1 19 -3 4 -6 -2 -5 -13z"/>
<path d="M8511 7244 c0 -11 3 -14 6 -6 3 7 2 16 -1 19 -3 4 -6 -2 -5 -13z"/>
<path d="M1870 6910 c7 -14 22 -38 34 -55 13 -16 26 -39 29 -49 4 -10 10 -16
14 -13 3 4 -12 32 -33 64 -45 69 -61 87 -44 53z"/>
<path d="M2030 6696 c0 -2 8 -10 18 -17 15 -13 16 -12 3 4 -13 16 -21 21 -21
13z"/>
<path d="M2241 6524 c13 -16 29 -19 29 -5 0 5 -9 11 -21 14 -16 4 -18 3 -8 -9z"/>
<path d="M8176 6077 c3 -10 9 -15 12 -12 3 3 0 11 -7 18 -10 9 -11 8 -5 -6z"/>
<path d="M8380 5501 c0 -6 5 -13 10 -16 6 -3 10 1 10 9 0 9 -4 16 -10 16 -5 0
-10 -4 -10 -9z"/>
<path d="M8420 5371 c0 -6 4 -13 10 -16 6 -3 7 1 4 9 -7 18 -14 21 -14 7z"/>
<path d="M1812 5350 c0 -14 2 -19 5 -12 2 6 2 18 0 25 -3 6 -5 1 -5 -13z"/>
<path d="M8451 5254 c0 -11 3 -14 6 -6 3 7 2 16 -1 19 -3 4 -6 -2 -5 -13z"/>
<path d="M1781 5204 c0 -11 3 -14 6 -6 3 7 2 16 -1 19 -3 4 -6 -2 -5 -13z"/>
<path d="M8460 5205 c0 -8 4 -15 10 -15 5 0 7 7 4 15 -4 8 -8 15 -10 15 -2 0
-4 -7 -4 -15z"/>
<path d="M8471 5170 c0 -8 4 -24 9 -35 5 -13 9 -14 9 -5 0 8 -4 24 -9 35 -5
13 -9 14 -9 5z"/>
<path d="M1771 5154 c0 -11 3 -14 6 -6 3 7 2 16 -1 19 -3 4 -6 -2 -5 -13z"/>
<path d="M1752 5060 c0 -14 2 -19 5 -12 2 6 2 18 0 25 -3 6 -5 1 -5 -13z"/>
<path d="M8492 5055 c0 -16 2 -22 5 -12 2 9 2 23 0 30 -3 6 -5 -1 -5 -18z"/>
<path d="M1739 4988 c0 -7 -4 -35 -8 -61 -4 -26 -5 -44 -1 -40 9 10 23 113 15
113 -3 0 -5 -6 -6 -12z"/>
<path d="M1722 4850 c0 -14 2 -19 5 -12 2 6 2 18 0 25 -3 6 -5 1 -5 -13z"/>
<path d="M8521 4824 c0 -11 3 -14 6 -6 3 7 2 16 -1 19 -3 4 -6 -2 -5 -13z"/>
<path d="M8521 4764 c0 -11 3 -14 6 -6 3 7 2 16 -1 19 -3 4 -6 -2 -5 -13z"/>
<path d="M8491 4214 c0 -11 3 -14 6 -6 3 7 2 16 -1 19 -3 4 -6 -2 -5 -13z"/>
<path d="M8177 3283 c-4 -3 -7 -11 -7 -17 0 -6 5 -5 12 2 6 6 9 14 7 17 -3 3
-9 2 -12 -2z"/>
<path d="M7975 2969 c-4 -6 -5 -12 -2 -15 2 -3 7 2 10 11 7 17 1 20 -8 4z"/>
<path d="M7870 2830 c0 -5 5 -10 10 -10 6 0 10 5 10 10 0 6 -4 10 -10 10 -5 0
-10 -4 -10 -10z"/>
<path d="M3640 1796 c0 -2 7 -7 16 -10 8 -3 12 -2 9 4 -6 10 -25 14 -25 6z"/>
</g>
</svg>
